<mxfile host="app.diagrams.net" agent="Mozilla/5.0 (Windows NT 10.0; Win64; x64) AppleWebKit/537.36 (KHTML, like Gecko) Chrome/130.0.0.0 Safari/537.36" version="24.8.6">
  <diagram name="PÃ¡gina-1" id="DkyDBDCR95cb9s8oZh3d">
    <mxGraphModel grid="1" page="1" gridSize="10" guides="1" tooltips="1" connect="1" arrows="1" fold="1" pageScale="1" pageWidth="827" pageHeight="1169" math="0" shadow="0">
      <root>
        <mxCell id="0" />
        <mxCell id="1" parent="0" />
        <mxCell id="RW3r2UvSEKn3Ow_GVWBG-19" value="Cliente&lt;div&gt;&lt;br&gt;&lt;/div&gt;" style="shape=umlActor;verticalLabelPosition=bottom;verticalAlign=top;html=1;" vertex="1" parent="1">
          <mxGeometry x="10" y="114" width="70" height="130" as="geometry" />
        </mxCell>
        <mxCell id="RW3r2UvSEKn3Ow_GVWBG-23" value="" style="ellipse;whiteSpace=wrap;html=1;shadow=1;" vertex="1" parent="1">
          <mxGeometry x="228" y="60" width="160" height="80" as="geometry" />
        </mxCell>
        <mxCell id="RW3r2UvSEKn3Ow_GVWBG-26" value="&lt;font style=&quot;vertical-align: inherit;&quot;&gt;&lt;font style=&quot;vertical-align: inherit;&quot;&gt;&lt;font style=&quot;vertical-align: inherit;&quot;&gt;&lt;font style=&quot;vertical-align: inherit;&quot;&gt;&lt;font style=&quot;vertical-align: inherit;&quot;&gt;&lt;font style=&quot;vertical-align: inherit;&quot;&gt;Faz o chamado&lt;/font&gt;&lt;/font&gt;&lt;/font&gt;&lt;/font&gt;&lt;/font&gt;&lt;/font&gt;" style="text;html=1;align=center;verticalAlign=middle;whiteSpace=wrap;rounded=0;" vertex="1" parent="1">
          <mxGeometry x="278" y="84" width="60" height="30" as="geometry" />
        </mxCell>
        <mxCell id="RW3r2UvSEKn3Ow_GVWBG-28" value="" style="ellipse;whiteSpace=wrap;html=1;shadow=1;" vertex="1" parent="1">
          <mxGeometry x="230" y="260" width="160" height="80" as="geometry" />
        </mxCell>
        <mxCell id="RW3r2UvSEKn3Ow_GVWBG-29" value="&lt;font style=&quot;vertical-align: inherit;&quot;&gt;&lt;font style=&quot;vertical-align: inherit;&quot;&gt;Recebe o chamado&lt;/font&gt;&lt;/font&gt;" style="text;html=1;align=center;verticalAlign=middle;whiteSpace=wrap;rounded=0;" vertex="1" parent="1">
          <mxGeometry x="280" y="285" width="60" height="30" as="geometry" />
        </mxCell>
        <mxCell id="RW3r2UvSEKn3Ow_GVWBG-31" value="" style="ellipse;whiteSpace=wrap;html=1;shadow=1;" vertex="1" parent="1">
          <mxGeometry x="230" y="400" width="160" height="80" as="geometry" />
        </mxCell>
        <mxCell id="RW3r2UvSEKn3Ow_GVWBG-32" value="&lt;font style=&quot;vertical-align: inherit;&quot;&gt;&lt;font style=&quot;vertical-align: inherit;&quot;&gt;&lt;font style=&quot;vertical-align: inherit;&quot;&gt;&lt;font style=&quot;vertical-align: inherit;&quot;&gt;Categoriza o chamado com sua prioridade&lt;/font&gt;&lt;/font&gt;&lt;/font&gt;&lt;/font&gt;" style="text;html=1;align=center;verticalAlign=middle;whiteSpace=wrap;rounded=0;" vertex="1" parent="1">
          <mxGeometry x="245" y="425" width="130" height="30" as="geometry" />
        </mxCell>
        <mxCell id="RW3r2UvSEKn3Ow_GVWBG-33" value="" style="endArrow=none;html=1;rounded=0;entryX=0.463;entryY=0.975;entryDx=0;entryDy=0;entryPerimeter=0;" edge="1" parent="1" target="RW3r2UvSEKn3Ow_GVWBG-23">
          <mxGeometry width="50" height="50" relative="1" as="geometry">
            <mxPoint x="300" y="260" as="sourcePoint" />
            <mxPoint x="350" y="210" as="targetPoint" />
            <Array as="points" />
          </mxGeometry>
        </mxCell>
        <mxCell id="RW3r2UvSEKn3Ow_GVWBG-34" value="&lt;font style=&quot;vertical-align: inherit;&quot;&gt;&lt;font style=&quot;vertical-align: inherit;&quot;&gt;&amp;lt;&amp;lt; include &amp;gt;&amp;gt;&lt;/font&gt;&lt;/font&gt;" style="text;html=1;align=center;verticalAlign=middle;whiteSpace=wrap;rounded=0;" vertex="1" parent="1">
          <mxGeometry x="310" y="190" width="80" height="30" as="geometry" />
        </mxCell>
        <mxCell id="RW3r2UvSEKn3Ow_GVWBG-35" value="Colaborador&lt;div&gt;&lt;br&gt;&lt;/div&gt;" style="shape=umlActor;verticalLabelPosition=bottom;verticalAlign=top;html=1;outlineConnect=0;" vertex="1" parent="1">
          <mxGeometry x="560" y="240" width="70" height="145" as="geometry" />
        </mxCell>
        <mxCell id="RW3r2UvSEKn3Ow_GVWBG-42" value="" style="endArrow=none;html=1;rounded=0;" edge="1" parent="1">
          <mxGeometry width="50" height="50" relative="1" as="geometry">
            <mxPoint x="90" y="190" as="sourcePoint" />
            <mxPoint x="230" y="110" as="targetPoint" />
          </mxGeometry>
        </mxCell>
        <mxCell id="RW3r2UvSEKn3Ow_GVWBG-43" value="" style="endArrow=none;html=1;rounded=0;exitX=1;exitY=0.5;exitDx=0;exitDy=0;" edge="1" parent="1" source="RW3r2UvSEKn3Ow_GVWBG-28">
          <mxGeometry width="50" height="50" relative="1" as="geometry">
            <mxPoint x="440" y="325" as="sourcePoint" />
            <mxPoint x="550" y="320" as="targetPoint" />
          </mxGeometry>
        </mxCell>
        <mxCell id="RW3r2UvSEKn3Ow_GVWBG-44" value="" style="endArrow=none;html=1;rounded=0;" edge="1" parent="1">
          <mxGeometry width="50" height="50" relative="1" as="geometry">
            <mxPoint x="390" y="430" as="sourcePoint" />
            <mxPoint x="550" y="320" as="targetPoint" />
          </mxGeometry>
        </mxCell>
        <mxCell id="RW3r2UvSEKn3Ow_GVWBG-45" value="&lt;font style=&quot;vertical-align: inherit;&quot;&gt;&lt;font style=&quot;vertical-align: inherit;&quot;&gt;&amp;lt;&amp;lt; include &amp;gt;&amp;gt;&lt;/font&gt;&lt;/font&gt;" style="text;html=1;align=center;verticalAlign=middle;whiteSpace=wrap;rounded=0;" vertex="1" parent="1">
          <mxGeometry x="310" y="355" width="80" height="30" as="geometry" />
        </mxCell>
        <mxCell id="RW3r2UvSEKn3Ow_GVWBG-46" value="" style="endArrow=none;html=1;rounded=0;exitX=0.456;exitY=0;exitDx=0;exitDy=0;exitPerimeter=0;entryX=0.444;entryY=0.975;entryDx=0;entryDy=0;entryPerimeter=0;" edge="1" parent="1" source="RW3r2UvSEKn3Ow_GVWBG-31" target="RW3r2UvSEKn3Ow_GVWBG-28">
          <mxGeometry width="50" height="50" relative="1" as="geometry">
            <mxPoint x="390" y="430" as="sourcePoint" />
            <mxPoint x="440" y="380" as="targetPoint" />
          </mxGeometry>
        </mxCell>
        <mxCell id="RW3r2UvSEKn3Ow_GVWBG-52" value="" style="endArrow=none;html=1;rounded=0;exitX=1;exitY=0.5;exitDx=0;exitDy=0;" edge="1" parent="1" source="RW3r2UvSEKn3Ow_GVWBG-50">
          <mxGeometry width="50" height="50" relative="1" as="geometry">
            <mxPoint x="340" y="590" as="sourcePoint" />
            <mxPoint x="550" y="320" as="targetPoint" />
          </mxGeometry>
        </mxCell>
        <mxCell id="RW3r2UvSEKn3Ow_GVWBG-53" value="" style="endArrow=none;html=1;rounded=0;" edge="1" parent="1" source="RW3r2UvSEKn3Ow_GVWBG-50">
          <mxGeometry width="50" height="50" relative="1" as="geometry">
            <mxPoint x="150" y="140" as="sourcePoint" />
            <mxPoint x="228" y="585" as="targetPoint" />
          </mxGeometry>
        </mxCell>
        <mxCell id="RW3r2UvSEKn3Ow_GVWBG-54" value="" style="endArrow=none;html=1;rounded=0;exitX=0.5;exitY=0;exitDx=0;exitDy=0;entryX=0.5;entryY=1;entryDx=0;entryDy=0;" edge="1" parent="1" source="RW3r2UvSEKn3Ow_GVWBG-50" target="RW3r2UvSEKn3Ow_GVWBG-31">
          <mxGeometry width="50" height="50" relative="1" as="geometry">
            <mxPoint x="390" y="430" as="sourcePoint" />
            <mxPoint x="440" y="380" as="targetPoint" />
          </mxGeometry>
        </mxCell>
        <mxCell id="RW3r2UvSEKn3Ow_GVWBG-55" value="&lt;font style=&quot;vertical-align: inherit;&quot;&gt;&lt;font style=&quot;vertical-align: inherit;&quot;&gt;&amp;lt;&amp;lt; include &amp;gt;&amp;gt;&lt;/font&gt;&lt;/font&gt;" style="text;html=1;align=center;verticalAlign=middle;whiteSpace=wrap;rounded=0;" vertex="1" parent="1">
          <mxGeometry x="185" y="515" width="80" height="30" as="geometry" />
        </mxCell>
        <mxCell id="RW3r2UvSEKn3Ow_GVWBG-56" value="" style="ellipse;whiteSpace=wrap;html=1;shadow=1;" vertex="1" parent="1">
          <mxGeometry x="240" y="707" width="160" height="80" as="geometry" />
        </mxCell>
        <mxCell id="RW3r2UvSEKn3Ow_GVWBG-57" value="Resolve o problema" style="text;html=1;align=center;verticalAlign=middle;whiteSpace=wrap;rounded=0;" vertex="1" parent="1">
          <mxGeometry x="290" y="730" width="60" height="30" as="geometry" />
        </mxCell>
        <mxCell id="RW3r2UvSEKn3Ow_GVWBG-58" value="" style="endArrow=none;html=1;rounded=0;exitX=0.913;exitY=0.25;exitDx=0;exitDy=0;exitPerimeter=0;" edge="1" parent="1" source="RW3r2UvSEKn3Ow_GVWBG-56">
          <mxGeometry width="50" height="50" relative="1" as="geometry">
            <mxPoint x="386" y="720" as="sourcePoint" />
            <mxPoint x="550" y="320" as="targetPoint" />
          </mxGeometry>
        </mxCell>
        <mxCell id="RW3r2UvSEKn3Ow_GVWBG-59" value="" style="endArrow=none;html=1;rounded=0;entryX=0.175;entryY=0.113;entryDx=0;entryDy=0;entryPerimeter=0;" edge="1" parent="1" target="RW3r2UvSEKn3Ow_GVWBG-50">
          <mxGeometry width="50" height="50" relative="1" as="geometry">
            <mxPoint x="90" y="190" as="sourcePoint" />
            <mxPoint x="160" y="540" as="targetPoint" />
          </mxGeometry>
        </mxCell>
        <mxCell id="RW3r2UvSEKn3Ow_GVWBG-50" value="" style="ellipse;whiteSpace=wrap;html=1;shadow=1;" vertex="1" parent="1">
          <mxGeometry x="140" y="601" width="160" height="80" as="geometry" />
        </mxCell>
        <mxCell id="RW3r2UvSEKn3Ow_GVWBG-51" value="Status do chamado&amp;nbsp;" style="text;html=1;align=center;verticalAlign=middle;whiteSpace=wrap;rounded=0;" vertex="1" parent="1">
          <mxGeometry x="185" y="626" width="60" height="30" as="geometry" />
        </mxCell>
        <mxCell id="RW3r2UvSEKn3Ow_GVWBG-61" value="" style="ellipse;whiteSpace=wrap;html=1;shadow=1;" vertex="1" parent="1">
          <mxGeometry x="245" y="860" width="160" height="80" as="geometry" />
        </mxCell>
        <mxCell id="RW3r2UvSEKn3Ow_GVWBG-62" value="Finaliza o chamado" style="text;html=1;align=center;verticalAlign=middle;whiteSpace=wrap;rounded=0;" vertex="1" parent="1">
          <mxGeometry x="295" y="885" width="60" height="30" as="geometry" />
        </mxCell>
        <mxCell id="RW3r2UvSEKn3Ow_GVWBG-63" value="" style="endArrow=none;html=1;rounded=0;exitX=0.5;exitY=0;exitDx=0;exitDy=0;entryX=0.5;entryY=1;entryDx=0;entryDy=0;" edge="1" parent="1" source="RW3r2UvSEKn3Ow_GVWBG-61" target="RW3r2UvSEKn3Ow_GVWBG-56">
          <mxGeometry width="50" height="50" relative="1" as="geometry">
            <mxPoint x="390" y="730" as="sourcePoint" />
            <mxPoint x="440" y="680" as="targetPoint" />
          </mxGeometry>
        </mxCell>
        <mxCell id="RW3r2UvSEKn3Ow_GVWBG-65" value="&lt;font style=&quot;vertical-align: inherit;&quot;&gt;&lt;font style=&quot;vertical-align: inherit;&quot;&gt;&amp;lt;&amp;lt; include &amp;gt;&amp;gt;&lt;/font&gt;&lt;/font&gt;" style="text;html=1;align=center;verticalAlign=middle;whiteSpace=wrap;rounded=0;" vertex="1" parent="1">
          <mxGeometry x="240" y="810" width="80" height="30" as="geometry" />
        </mxCell>
        <mxCell id="RW3r2UvSEKn3Ow_GVWBG-66" value="" style="endArrow=none;html=1;rounded=0;exitX=0;exitY=0.5;exitDx=0;exitDy=0;" edge="1" parent="1" source="RW3r2UvSEKn3Ow_GVWBG-61">
          <mxGeometry width="50" height="50" relative="1" as="geometry">
            <mxPoint x="390" y="630" as="sourcePoint" />
            <mxPoint x="190" y="680" as="targetPoint" />
          </mxGeometry>
        </mxCell>
        <mxCell id="RW3r2UvSEKn3Ow_GVWBG-67" value="" style="swimlane;startSize=0;" vertex="1" parent="1">
          <mxGeometry x="100" y="40" width="430" height="930" as="geometry" />
        </mxCell>
        <mxCell id="RW3r2UvSEKn3Ow_GVWBG-68" value="" style="endArrow=none;html=1;rounded=0;exitX=0.913;exitY=0.2;exitDx=0;exitDy=0;exitPerimeter=0;" edge="1" parent="1" source="RW3r2UvSEKn3Ow_GVWBG-61">
          <mxGeometry width="50" height="50" relative="1" as="geometry">
            <mxPoint x="390" y="630" as="sourcePoint" />
            <mxPoint x="550" y="320" as="targetPoint" />
          </mxGeometry>
        </mxCell>
      </root>
    </mxGraphModel>
  </diagram>
</mxfile>
